<?xml version="1.0" encoding="utf-8"?>
<!-- Generator: Adobe Illustrator 25.0.0, SVG Export Plug-In . SVG Version: 6.00 Build 0)  -->
<svg version="1.1" id="Layer_1" xmlns="http://www.w3.org/2000/svg" xmlns:xlink="http://www.w3.org/1999/xlink" x="0px" y="0px"
	 viewBox="0 0 512 512" style="enable-background:new 0 0 512 512;" xml:space="preserve">
<style type="text/css">
	.st0{fill:none;}
	.st1{fill:#FFFFFF;}
</style>
<path class="st0" d="M0,0h512v512H0V0z"/>
<path class="st1" d="M329.8,235.7l62.8-82.7l42.9,32.6l-62.8,82.8L329.8,235.7z M316.9,226.2l66.8-88l-45-34.2l-66.8,88L316.9,226.2
	z M289.5,128.4L270.2,168l57-75l-42.5-32.3l-36.2,47.7L289.5,128.4z M268.7,55.1l-46.6-35.4l-42,55.3l53.7,26.2L268.7,55.1z
	 M375.7,290.7L236.7,188l-9.9,0.9l4.6,2l62.2,138.4l-16.5,2.2L219.3,203l-40-17.7l-4-30.8l39.4,19.4l36.4-3.3l17-34.8L157.2,81.7
	L76.5,194.2l101.1,152.5l-22.7,145.6H341V372.6l35.3-48.9l10.7-47.9L375.7,290.7z"/>
</svg>
